<?xml version="1.0" encoding="UTF-8"?>
<svg xmlns="http://www.w3.org/2000/svg" viewBox="0 0 343.67 69.39">
  <defs>
    <style>
      .cls-1 {
        fill: #000;
      }

      .cls-1, .cls-2, .cls-3, .cls-4 {
        stroke-width: 0px;
      }

      .cls-2, .cls-5 {
        fill: #ff00cf;
      }

      .cls-3 {
        fill: #38e8e8;
      }

      .cls-4 {
        fill: #fff;
      }

      .cls-5 {
        stroke: #000;
        stroke-miterlimit: 10;
        stroke-width: .25px;
      }
    </style>
  </defs>
  <g id="background">
    <rect class="cls-1" width="343.67" height="69.39" rx="10.25" ry="10.25"/>
  </g>
  <g id="glitch">
    <g id="Layer_2" data-name="Layer 2">
      <g id="rightside">
        <g>
          <path class="cls-2" d="M48.8,15.46h-15.13c-.24,0-.44.1-.48.39l-.42,1.93h25.33c-1.86-1.43-4.83-2.32-9.3-2.32Z"/>
          <path class="cls-2" d="M47.2,22.88h13.5c-.12-1.98-.88-3.77-2.6-5.1h-25.33l-1.1,5.1h15.52Z"/>
          <path class="cls-2" d="M148.24,15.95c.05-.29-.1-.49-.39-.49h-9.45c-.24,0-.44.1-.48.39l-.45,1.93h10.35l.43-1.84Z"/>
          <path class="cls-2" d="M136.47,22.88h10.05c.08-.06.14-.15.16-.29l1.12-4.8h-10.35l-1.1,4.71c-.03.17.02.31.12.39Z"/>
          <path class="cls-2" d="M233.81,15.95c.05-.29-.1-.49-.39-.49h-10.09c-.24,0-.44.1-.48.39l-.42,1.93h10.92l.46-1.84Z"/>
          <path class="cls-2" d="M212.23,15.95c.05-.29-.1-.49-.39-.49h-10.09c-.24,0-.44.1-.48.39l-.41,1.93h10.92l.45-1.84Z"/>
          <polygon class="cls-2" points="210.54 22.88 211.78 17.78 200.86 17.78 199.79 22.88 210.54 22.88"/>
          <polygon class="cls-2" points="232.09 22.88 233.35 17.78 222.43 17.78 221.33 22.88 232.09 22.88"/>
        </g>
        <g>
          <path class="cls-2" d="M48.44,15.46h-15.13c-.24,0-.44.1-.48.39l-.42,1.93h25.33c-1.86-1.43-4.83-2.32-9.3-2.32Z"/>
          <path class="cls-2" d="M46.84,22.88h13.5c-.12-1.98-.88-3.77-2.6-5.1h-25.33l-1.1,5.1h15.52Z"/>
          <path class="cls-2" d="M147.88,15.95c.05-.29-.1-.49-.39-.49h-9.45c-.24,0-.44.1-.48.39l-.45,1.93h10.35l.43-1.84Z"/>
          <path class="cls-2" d="M136.11,22.88h10.05c.08-.06.14-.15.16-.29l1.12-4.8h-10.35l-1.1,4.71c-.03.17.02.31.12.39Z"/>
          <path class="cls-2" d="M233.45,15.95c.05-.29-.1-.49-.39-.49h-10.09c-.24,0-.44.1-.48.39l-.42,1.93h10.92l.46-1.84Z"/>
          <path class="cls-2" d="M211.87,15.95c.05-.29-.1-.49-.39-.49h-10.09c-.24,0-.44.1-.48.39l-.41,1.93h10.92l.45-1.84Z"/>
          <polygon class="cls-2" points="210.18 22.88 211.42 17.78 200.5 17.78 199.43 22.88 210.18 22.88"/>
          <polygon class="cls-2" points="231.73 22.88 232.99 17.78 222.07 17.78 220.97 22.88 231.73 22.88"/>
        </g>
      </g>
      <g id="leftside">
        <path class="cls-3" d="M43.36,15.46h-15.13c-.24,0-.44.1-.48.39l-.42,1.93h25.33c-1.86-1.43-4.82-2.32-9.3-2.32Z"/>
        <path class="cls-3" d="M41.76,22.88h13.5c-.12-1.98-.88-3.77-2.6-5.1h-25.33l-1.1,5.1h15.52Z"/>
        <path class="cls-3" d="M142.79,15.95c.05-.29-.1-.49-.39-.49h-9.45c-.24,0-.44.1-.48.39l-.45,1.93h10.35l.43-1.84Z"/>
        <path class="cls-3" d="M131.03,22.88h10.05c.08-.06.14-.15.16-.29l1.12-4.8h-10.35l-1.1,4.71c-.03.17.02.31.12.39Z"/>
        <path class="cls-3" d="M228.36,15.95c.05-.29-.1-.49-.39-.49h-10.08c-.24,0-.44.1-.48.39l-.42,1.93h10.92l.46-1.84Z"/>
        <path class="cls-3" d="M206.78,15.95c.05-.29-.1-.49-.39-.49h-10.08c-.24,0-.44.1-.48.39l-.41,1.93h10.92l.45-1.84Z"/>
        <polygon class="cls-3" points="205.1 22.88 206.34 17.78 195.42 17.78 194.34 22.88 205.1 22.88"/>
        <polygon class="cls-3" points="226.64 22.88 227.9 17.78 216.98 17.78 215.88 22.88 226.64 22.88"/>
      </g>
      <g>
        <path class="cls-4" d="M44.98,15.46h-15.23c-.24,0-.44.1-.49.39l-.42,1.93h25.51c-1.87-1.43-4.86-2.32-9.37-2.32Z"/>
        <path class="cls-4" d="M43.37,22.88h13.6c-.12-1.98-.89-3.77-2.62-5.1h-25.51l-1.1,5.1h15.63Z"/>
        <path class="cls-4" d="M145.12,15.95c.05-.29-.1-.49-.39-.49h-9.52c-.24,0-.44.1-.49.39l-.45,1.93h10.42l.43-1.84Z"/>
        <path class="cls-4" d="M133.27,22.88h10.12c.08-.06.14-.15.16-.29l1.13-4.8h-10.42l-1.11,4.71c-.03.17.02.31.12.39Z"/>
        <path class="cls-4" d="M231.29,15.95c.05-.29-.1-.49-.39-.49h-10.16c-.24,0-.44.1-.49.39l-.42,1.93h11l.46-1.84Z"/>
        <path class="cls-4" d="M209.56,15.95c.05-.29-.1-.49-.39-.49h-10.16c-.24,0-.44.1-.49.39l-.41,1.93h11l.45-1.84Z"/>
        <polygon class="cls-4" points="207.87 22.88 209.11 17.78 198.12 17.78 197.03 22.88 207.87 22.88"/>
        <polygon class="cls-4" points="229.56 22.88 230.83 17.78 219.83 17.78 218.72 22.88 229.56 22.88"/>
      </g>
      <g id="rightside-2" data-name="rightside">
        <g>
          <path class="cls-2" d="M58.77,31.85c3.35-.83,5.64-2.41,6.84-4.57h-10.4c-.62.7-1.65,1.15-3.22,1.15h-5.19l.31-1.15h-10.54l-1.11,5.15-.3,1.22h26.95c-.82-.76-1.92-1.36-3.32-1.81Z"/>
          <path class="cls-2" d="M75.73,27.28c-1.99,1.7-3.43,3.9-4.25,6.38h9.78c.73-2.25,1.99-3.42,3.93-3.42,2.18,0,3.05,1.51,2.96,3.42h9.93c-.3-2.51-1.29-4.7-2.9-6.38h-19.45Z"/>
          <path class="cls-2" d="M108.66,27.28c-1.79,1.75-3.05,4.01-3.77,6.38h10.28c.72-1.79,1.99-3.32,4.11-3.32,1.83,0,2.96,1.14,3.08,3.32h10.29l1.48-6.38h-25.48Z"/>
          <polygon class="cls-2" points="141.18 27.28 139.81 33.66 149.87 33.66 151.45 27.28 141.18 27.28"/>
          <path class="cls-2" d="M182.84,27.28h-24.29l-1.46,6.38h10.61c.82-1.41,1.97-2.49,3.59-2.49s2.09,1.05,2.01,2.49h10.19c.54-2.63.25-4.77-.65-6.38Z"/>
          <polygon class="cls-2" points="236.81 27.28 226.2 27.28 226.13 27.6 215.22 27.6 215.3 27.28 204.68 27.28 203.63 32.24 203.28 33.66 235.28 33.66 235.58 32.24 236.81 27.28"/>
          <path class="cls-2" d="M246.62,27.28c-1.99,1.7-3.43,3.9-4.25,6.38h9.78c.73-2.25,1.99-3.42,3.93-3.42,2.18,0,3.05,1.51,2.96,3.42h9.93c-.3-2.51-1.29-4.7-2.9-6.38h-19.45Z"/>
          <path class="cls-2" d="M295.16,31.8c.29.05.44-.1.48-.39l.94-4.13h-8.33c-.34.3-.67.61-1,.96l.26-.96h-9.86l-1.35,6.38h12.37c1.67-1.22,3.74-1.86,6.09-1.86h.39Z"/>
          <path class="cls-2" d="M305.24,27.28c-1.99,1.7-3.43,3.9-4.25,6.38h9.78c.73-2.25,1.99-3.42,3.93-3.42,2.18,0,3.05,1.51,2.96,3.42h9.93c-.3-2.51-1.29-4.7-2.9-6.38h-19.45Z"/>
        </g>
        <g>
          <path class="cls-2" d="M58.41,31.85c3.35-.83,5.64-2.41,6.84-4.57h-10.4c-.62.7-1.65,1.15-3.22,1.15h-5.19l.31-1.15h-10.54l-1.11,5.15-.3,1.22h26.95c-.82-.76-1.92-1.36-3.32-1.81Z"/>
          <path class="cls-2" d="M75.37,27.28c-1.99,1.7-3.43,3.9-4.25,6.38h9.78c.73-2.25,1.99-3.42,3.93-3.42,2.18,0,3.05,1.51,2.96,3.42h9.93c-.3-2.51-1.29-4.7-2.9-6.38h-19.45Z"/>
          <path class="cls-2" d="M108.3,27.28c-1.79,1.75-3.05,4.01-3.77,6.38h10.28c.72-1.79,1.99-3.32,4.11-3.32,1.83,0,2.96,1.14,3.08,3.32h10.29l1.48-6.38h-25.48Z"/>
          <polygon class="cls-2" points="140.82 27.28 139.45 33.66 149.51 33.66 151.09 27.28 140.82 27.28"/>
          <path class="cls-2" d="M182.48,27.28h-24.29l-1.46,6.38h10.61c.82-1.41,1.97-2.49,3.59-2.49s2.09,1.05,2.01,2.49h10.19c.54-2.63.25-4.77-.65-6.38Z"/>
          <polygon class="cls-2" points="236.45 27.28 225.84 27.28 225.77 27.6 214.86 27.6 214.94 27.28 204.32 27.28 203.27 32.24 202.92 33.66 234.92 33.66 235.22 32.24 236.45 27.28"/>
          <path class="cls-2" d="M246.26,27.28c-1.99,1.7-3.43,3.9-4.25,6.38h9.78c.73-2.25,1.99-3.42,3.93-3.42,2.18,0,3.05,1.51,2.96,3.42h9.93c-.3-2.51-1.29-4.7-2.9-6.38h-19.45Z"/>
          <path class="cls-2" d="M294.8,31.8c.29.05.44-.1.48-.39l.94-4.13h-8.33c-.34.3-.67.61-1,.96l.26-.96h-9.86l-1.35,6.38h12.37c1.67-1.22,3.74-1.86,6.09-1.86h.39Z"/>
          <path class="cls-2" d="M304.88,27.28c-1.99,1.7-3.43,3.9-4.25,6.38h9.78c.73-2.25,1.99-3.42,3.93-3.42,2.18,0,3.05,1.51,2.96,3.42h9.93c-.3-2.51-1.29-4.7-2.9-6.38h-19.45Z"/>
        </g>
      </g>
      <g id="leftside-2" data-name="leftside">
        <path class="cls-3" d="M53.33,31.85c3.35-.83,5.64-2.41,6.84-4.57h-10.4c-.62.7-1.65,1.15-3.22,1.15h-5.19l.31-1.15h-10.54l-1.11,5.15-.3,1.22h26.94c-.82-.76-1.92-1.36-3.32-1.81Z"/>
        <path class="cls-3" d="M70.29,27.28c-1.99,1.7-3.43,3.9-4.25,6.38h9.78c.73-2.25,1.99-3.42,3.93-3.42,2.18,0,3.05,1.51,2.96,3.42h9.93c-.3-2.51-1.29-4.7-2.9-6.38h-19.45Z"/>
        <path class="cls-3" d="M103.21,27.28c-1.79,1.75-3.05,4.01-3.77,6.38h10.28c.72-1.79,1.99-3.32,4.11-3.32,1.83,0,2.96,1.14,3.08,3.32h10.29l1.48-6.38h-25.47Z"/>
        <polygon class="cls-3" points="135.74 27.28 134.37 33.66 144.43 33.66 146.01 27.28 135.74 27.28"/>
        <path class="cls-3" d="M177.4,27.28h-24.29l-1.46,6.38h10.61c.82-1.41,1.97-2.49,3.59-2.49s2.09,1.05,2.01,2.49h10.19c.54-2.63.25-4.77-.65-6.38Z"/>
        <polygon class="cls-3" points="231.36 27.28 220.75 27.28 220.68 27.6 209.77 27.6 209.85 27.28 199.23 27.28 198.18 32.24 197.83 33.66 229.83 33.66 230.13 32.24 231.36 27.28"/>
        <path class="cls-3" d="M241.17,27.28c-1.99,1.7-3.43,3.9-4.25,6.38h9.78c.73-2.25,1.99-3.42,3.93-3.42,2.18,0,3.05,1.51,2.96,3.42h9.93c-.3-2.51-1.29-4.7-2.9-6.38h-19.45Z"/>
        <path class="cls-3" d="M289.71,31.8c.29.05.44-.1.48-.39l.94-4.13h-8.33c-.34.3-.67.61-1,.96l.26-.96h-9.86l-1.35,6.38h12.37c1.67-1.22,3.74-1.86,6.09-1.86h.39Z"/>
        <path class="cls-3" d="M299.79,27.28c-1.99,1.7-3.43,3.9-4.25,6.38h9.78c.73-2.25,1.99-3.42,3.93-3.42,2.18,0,3.05,1.51,2.96,3.42h9.93c-.3-2.51-1.29-4.7-2.9-6.38h-19.45Z"/>
      </g>
      <g>
        <path class="cls-4" d="M55.02,31.85c3.38-.83,5.68-2.41,6.89-4.57h-10.48c-.63.7-1.66,1.15-3.25,1.15h-5.22l.31-1.15h-10.62l-1.12,5.15-.3,1.22h27.14c-.83-.76-1.93-1.36-3.35-1.81Z"/>
        <path class="cls-4" d="M72.1,27.28c-2,1.7-3.45,3.9-4.28,6.38h9.85c.73-2.25,2-3.42,3.96-3.42,2.2,0,3.08,1.51,2.98,3.42h10c-.3-2.51-1.3-4.7-2.92-6.38h-19.58Z"/>
        <path class="cls-4" d="M105.26,27.28c-1.8,1.75-3.07,4.01-3.8,6.38h10.35c.73-1.79,2-3.32,4.14-3.32,1.84,0,2.98,1.14,3.1,3.32h10.37l1.49-6.38h-25.66Z"/>
        <polygon class="cls-4" points="138.01 27.28 136.63 33.66 146.77 33.66 148.35 27.28 138.01 27.28"/>
        <path class="cls-4" d="M179.97,27.28h-24.46l-1.47,6.38h10.69c.83-1.41,1.99-2.49,3.62-2.49s2.11,1.05,2.02,2.49h10.26c.55-2.63.25-4.77-.65-6.38Z"/>
        <polygon class="cls-4" points="234.32 27.28 223.63 27.28 223.56 27.6 212.57 27.6 212.65 27.28 201.96 27.28 200.9 32.24 200.55 33.66 232.78 33.66 233.08 32.24 234.32 27.28"/>
        <path class="cls-4" d="M244.2,27.28c-2,1.7-3.45,3.9-4.28,6.38h9.85c.73-2.25,2-3.42,3.96-3.42,2.2,0,3.08,1.51,2.98,3.42h10c-.3-2.51-1.3-4.7-2.92-6.38h-19.58Z"/>
        <path class="cls-4" d="M293.08,31.8c.29.05.44-.1.49-.39l.95-4.13h-8.39c-.34.3-.68.61-1.01.96l.26-.96h-9.93l-1.36,6.38h12.45c1.68-1.22,3.77-1.86,6.13-1.86h.39Z"/>
        <path class="cls-4" d="M303.23,27.28c-2,1.7-3.45,3.9-4.28,6.38h9.85c.73-2.25,2-3.42,3.96-3.42,2.2,0,3.08,1.51,2.98,3.42h10c-.3-2.51-1.3-4.7-2.92-6.38h-19.58Z"/>
      </g>
      <g id="rightside-3" data-name="rightside">
        <g>
          <path class="cls-2" d="M52.64,24.47h10.65c.04-.33.06-.67.06-1.03,0-.2-.01-.39-.03-.59h-13.5c1.83,0,2.58.63,2.82,1.61Z"/>
          <polygon class="cls-2" points="45.07 22.86 34.3 22.86 33.95 24.47 44.64 24.47 45.07 22.86"/>
          <path class="cls-2" d="M82.64,23.84c-1.67,0-3.23.23-4.66.63h9.14c-1.34-.41-2.84-.63-4.48-.63Z"/>
          <path class="cls-2" d="M113.86,23.98c-1.25,0-2.4.18-3.47.49h6.83c-.99-.32-2.11-.49-3.36-.49Z"/>
          <path class="cls-2" d="M148.82,22.96c.13,0,.24-.03.33-.1h-10.05c.07.06.15.1.27.1h9.45Z"/>
          <path class="cls-2" d="M172.86,23.89c-1.24,0-2.41.22-3.5.59h6.82c-1-.38-2.11-.59-3.32-.59Z"/>
          <polygon class="cls-2" points="223.59 24.47 234.3 24.47 234.7 22.86 223.94 22.86 223.59 24.47"/>
          <polygon class="cls-2" points="212.77 24.47 213.16 22.86 202.4 22.86 202.06 24.47 212.77 24.47"/>
          <path class="cls-2" d="M253.53,23.84c-1.67,0-3.23.23-4.66.63h9.14c-1.34-.41-2.84-.63-4.48-.63Z"/>
          <path class="cls-2" d="M293.58,24.42c-.24-.05-.48-.1-.73-.1-.58,0-1.16.06-1.73.15h2.64c-.05-.03-.11-.05-.19-.05Z"/>
          <path class="cls-2" d="M312.15,23.84c-1.67,0-3.23.23-4.66.63h9.14c-1.34-.41-2.84-.63-4.48-.63Z"/>
        </g>
        <g>
          <path class="cls-2" d="M52.28,24.47h10.65c.04-.33.06-.67.06-1.03,0-.2-.01-.39-.03-.59h-13.5c1.83,0,2.58.63,2.82,1.61Z"/>
          <polygon class="cls-2" points="44.71 22.86 33.94 22.86 33.59 24.47 44.28 24.47 44.71 22.86"/>
          <path class="cls-2" d="M82.28,23.84c-1.67,0-3.23.23-4.66.63h9.14c-1.34-.41-2.84-.63-4.48-.63Z"/>
          <path class="cls-2" d="M113.5,23.98c-1.25,0-2.4.18-3.47.49h6.83c-.99-.32-2.11-.49-3.36-.49Z"/>
          <path class="cls-2" d="M148.46,22.96c.13,0,.24-.03.33-.1h-10.05c.07.06.15.1.27.1h9.45Z"/>
          <path class="cls-2" d="M172.5,23.89c-1.24,0-2.41.22-3.5.59h6.82c-1-.38-2.11-.59-3.32-.59Z"/>
          <polygon class="cls-2" points="223.23 24.47 233.94 24.47 234.34 22.86 223.58 22.86 223.23 24.47"/>
          <polygon class="cls-2" points="212.41 24.47 212.8 22.86 202.04 22.86 201.7 24.47 212.41 24.47"/>
          <path class="cls-2" d="M253.17,23.84c-1.67,0-3.23.23-4.66.63h9.14c-1.34-.41-2.84-.63-4.48-.63Z"/>
          <path class="cls-2" d="M293.22,24.42c-.24-.05-.48-.1-.73-.1-.58,0-1.16.06-1.73.15h2.64c-.05-.03-.11-.05-.19-.05Z"/>
          <path class="cls-2" d="M311.79,23.84c-1.67,0-3.23.23-4.66.63h9.14c-1.34-.41-2.84-.63-4.48-.63Z"/>
        </g>
      </g>
      <g id="leftside-3" data-name="leftside">
        <path class="cls-3" d="M47.2,24.47h10.65c.04-.33.06-.67.06-1.03,0-.2-.01-.39-.03-.59h-13.5c1.83,0,2.58.63,2.82,1.61Z"/>
        <polygon class="cls-3" points="39.63 22.86 28.86 22.86 28.51 24.47 39.2 24.47 39.63 22.86"/>
        <path class="cls-3" d="M77.2,23.84c-1.67,0-3.22.23-4.66.63h9.14c-1.34-.41-2.84-.63-4.48-.63Z"/>
        <path class="cls-3" d="M108.42,23.98c-1.25,0-2.4.18-3.47.49h6.83c-.99-.32-2.11-.49-3.36-.49Z"/>
        <path class="cls-3" d="M143.37,22.96c.13,0,.24-.03.33-.1h-10.05c.07.06.15.1.27.1h9.45Z"/>
        <path class="cls-3" d="M167.42,23.89c-1.24,0-2.41.22-3.5.59h6.82c-1-.38-2.11-.59-3.32-.59Z"/>
        <polygon class="cls-3" points="218.14 24.47 228.85 24.47 229.25 22.86 218.49 22.86 218.14 24.47"/>
        <polygon class="cls-3" points="207.32 24.47 207.71 22.86 196.95 22.86 196.61 24.47 207.32 24.47"/>
        <path class="cls-3" d="M248.08,23.84c-1.67,0-3.22.23-4.66.63h9.14c-1.34-.41-2.84-.63-4.48-.63Z"/>
        <path class="cls-3" d="M288.13,24.42c-.24-.05-.48-.1-.73-.1-.58,0-1.16.06-1.73.15h2.64c-.05-.03-.11-.05-.19-.05Z"/>
        <path class="cls-3" d="M306.69,23.84c-1.67,0-3.22.23-4.66.63h9.14c-1.34-.41-2.84-.63-4.48-.63Z"/>
      </g>
      <g>
        <path class="cls-4" d="M48.84,24.47h10.72c.04-.33.06-.67.06-1.03,0-.2-.01-.39-.03-.59h-13.6c1.84,0,2.6.63,2.84,1.61Z"/>
        <polygon class="cls-4" points="41.22 22.86 30.37 22.86 30.02 24.47 40.79 24.47 41.22 22.86"/>
        <path class="cls-4" d="M79.06,23.84c-1.68,0-3.25.23-4.69.63h9.2c-1.35-.41-2.86-.63-4.51-.63Z"/>
        <path class="cls-4" d="M110.5,23.98c-1.26,0-2.42.18-3.5.49h6.88c-1-.32-2.12-.49-3.38-.49Z"/>
        <path class="cls-4" d="M145.7,22.96c.13,0,.24-.03.33-.1h-10.12c.07.06.16.1.27.1h9.52Z"/>
        <path class="cls-4" d="M169.92,23.89c-1.25,0-2.43.22-3.52.59h6.86c-1-.38-2.13-.59-3.34-.59Z"/>
        <polygon class="cls-4" points="221.01 24.47 231.79 24.47 232.19 22.86 221.36 22.86 221.01 24.47"/>
        <polygon class="cls-4" points="210.11 24.47 210.5 22.86 199.66 22.86 199.32 24.47 210.11 24.47"/>
        <path class="cls-4" d="M251.16,23.84c-1.68,0-3.25.23-4.69.63h9.2c-1.35-.41-2.86-.63-4.51-.63Z"/>
        <path class="cls-4" d="M291.49,24.42c-.24-.05-.49-.1-.73-.1-.59,0-1.16.06-1.74.15h2.66c-.05-.03-.11-.05-.19-.05Z"/>
        <path class="cls-4" d="M310.18,23.84c-1.68,0-3.25.23-4.69.63h9.2c-1.35-.41-2.86-.63-4.51-.63Z"/>
      </g>
      <g id="rightside-4" data-name="rightside">
        <g>
          <path class="cls-5" d="M50.24,24.55c.06.24.09.5.09.78,0,.81-.24,1.55-.75,2.12h10.4c.48-.88.79-1.85.9-2.9h-10.65Z"/>
          <polygon class="cls-5" points="42.24 24.55 31.55 24.55 30.93 27.45 41.47 27.45 42.24 24.55"/>
          <path class="cls-5" d="M84.72,24.55h-9.14c-2.11.6-3.95,1.6-5.48,2.9h19.45c-1.26-1.31-2.88-2.31-4.83-2.9Z"/>
          <path class="cls-5" d="M128.68,24.55h-9.31c-.24,0-.44.1-.48.39l-.44,2.2c-.86-1.22-2.08-2.09-3.62-2.59h-6.83c-1.96.56-3.62,1.58-4.97,2.9h25.48l.56-2.41c.05-.29-.1-.49-.39-.49Z"/>
          <path class="cls-5" d="M146.03,24.55h-9.45c-.24,0-.44.1-.48.39l-.54,2.51h10.27l.6-2.41c.05-.29-.1-.49-.39-.49Z"/>
          <path class="cls-5" d="M173.79,24.55h-6.82c-1.59.54-3,1.4-4.21,2.44l.48-1.95c.05-.29-.1-.49-.39-.49h-8.87c-.24,0-.44.1-.48.39l-.58,2.51h24.29c-.76-1.36-1.95-2.34-3.43-2.9Z"/>
          <polygon class="cls-5" points="220.57 27.45 231.19 27.45 231.91 24.55 221.2 24.55 220.57 27.45"/>
          <polygon class="cls-5" points="199.67 24.55 199.05 27.45 209.67 27.45 210.37 24.55 199.67 24.55"/>
          <path class="cls-5" d="M260.44,27.45c-1.26-1.31-2.88-2.31-4.83-2.9h-9.14c-2.11.6-3.95,1.6-5.48,2.9h19.45Z"/>
          <path class="cls-5" d="M272.57,24.94l-.53,2.51h9.86l.66-2.41c.1-.34-.05-.49-.34-.49h-9.16c-.24,0-.44.1-.48.39Z"/>
          <path class="cls-5" d="M290.96,27.45l.56-2.46c.04-.18,0-.36-.15-.44h-2.64c-2.17.33-4.24,1.28-6.1,2.9h8.33Z"/>
          <path class="cls-5" d="M319.06,27.45c-1.26-1.31-2.88-2.31-4.83-2.9h-9.14c-2.11.6-3.95,1.6-5.48,2.9h19.45Z"/>
        </g>
        <g>
          <path class="cls-5" d="M49.88,24.55c.06.24.09.5.09.78,0,.81-.24,1.55-.75,2.12h10.4c.48-.88.79-1.85.9-2.9h-10.65Z"/>
          <polygon class="cls-5" points="41.88 24.55 31.19 24.55 30.57 27.45 41.11 27.45 41.88 24.55"/>
          <path class="cls-5" d="M84.36,24.55h-9.14c-2.11.6-3.95,1.6-5.48,2.9h19.45c-1.26-1.31-2.88-2.31-4.83-2.9Z"/>
          <path class="cls-5" d="M128.32,24.55h-9.31c-.24,0-.44.1-.48.39l-.44,2.2c-.86-1.22-2.08-2.09-3.62-2.59h-6.83c-1.96.56-3.62,1.58-4.97,2.9h25.48l.56-2.41c.05-.29-.1-.49-.39-.49Z"/>
          <path class="cls-5" d="M145.67,24.55h-9.45c-.24,0-.44.1-.48.39l-.54,2.51h10.27l.6-2.41c.05-.29-.1-.49-.39-.49Z"/>
          <path class="cls-5" d="M173.43,24.55h-6.82c-1.59.54-3,1.4-4.21,2.44l.48-1.95c.05-.29-.1-.49-.39-.49h-8.87c-.24,0-.44.1-.48.39l-.58,2.51h24.29c-.76-1.36-1.95-2.34-3.43-2.9Z"/>
          <polygon class="cls-5" points="220.21 27.45 230.83 27.45 231.55 24.55 220.84 24.55 220.21 27.45"/>
          <polygon class="cls-5" points="199.31 24.55 198.69 27.45 209.31 27.45 210.01 24.55 199.31 24.55"/>
          <path class="cls-5" d="M260.08,27.45c-1.26-1.31-2.88-2.31-4.83-2.9h-9.14c-2.11.6-3.95,1.6-5.48,2.9h19.45Z"/>
          <path class="cls-5" d="M272.21,24.94l-.53,2.51h9.86l.66-2.41c.1-.34-.05-.49-.34-.49h-9.16c-.24,0-.44.1-.48.39Z"/>
          <path class="cls-5" d="M290.6,27.45l.56-2.46c.04-.18,0-.36-.15-.44h-2.64c-2.17.33-4.24,1.28-6.1,2.9h8.33Z"/>
          <path class="cls-5" d="M318.7,27.45c-1.26-1.31-2.88-2.31-4.83-2.9h-9.14c-2.11.6-3.95,1.6-5.48,2.9h19.45Z"/>
        </g>
      </g>
      <g id="leftside-4" data-name="leftside">
        <path class="cls-3" d="M44.8,24.55c.06.24.09.5.09.78,0,.81-.24,1.55-.75,2.12h10.4c.48-.88.79-1.85.9-2.9h-10.65Z"/>
        <polygon class="cls-3" points="36.81 24.55 26.12 24.55 25.49 27.45 36.04 27.45 36.81 24.55"/>
        <path class="cls-3" d="M79.28,24.55h-9.14c-2.11.6-3.95,1.6-5.48,2.9h19.45c-1.26-1.31-2.88-2.31-4.83-2.9Z"/>
        <path class="cls-3" d="M123.24,24.55h-9.31c-.24,0-.44.1-.48.39l-.44,2.2c-.86-1.22-2.08-2.09-3.62-2.59h-6.83c-1.96.56-3.62,1.58-4.97,2.9h25.47l.56-2.41c.05-.29-.1-.49-.39-.49Z"/>
        <path class="cls-3" d="M140.59,24.55h-9.45c-.24,0-.44.1-.48.39l-.54,2.51h10.27l.6-2.41c.05-.29-.1-.49-.39-.49Z"/>
        <path class="cls-3" d="M168.34,24.55h-6.82c-1.59.54-3,1.4-4.21,2.44l.48-1.95c.05-.29-.1-.49-.39-.49h-8.87c-.24,0-.44.1-.48.39l-.58,2.51h24.29c-.76-1.36-1.95-2.34-3.43-2.9Z"/>
        <polygon class="cls-3" points="215.12 27.45 225.74 27.45 226.46 24.55 215.75 24.55 215.12 27.45"/>
        <polygon class="cls-3" points="194.22 24.55 193.6 27.45 204.22 27.45 204.93 24.55 194.22 24.55"/>
        <path class="cls-3" d="M254.99,27.45c-1.26-1.31-2.88-2.31-4.83-2.9h-9.14c-2.11.6-3.95,1.6-5.48,2.9h19.45Z"/>
        <path class="cls-3" d="M267.11,24.94l-.53,2.51h9.86l.66-2.41c.1-.34-.05-.49-.34-.49h-9.16c-.24,0-.44.1-.48.39Z"/>
        <path class="cls-3" d="M285.51,27.45l.56-2.46c.04-.18,0-.36-.15-.44h-2.64c-2.17.33-4.24,1.28-6.1,2.9h8.33Z"/>
        <path class="cls-3" d="M313.6,27.45c-1.26-1.31-2.88-2.31-4.83-2.9h-9.14c-2.11.6-3.95,1.6-5.48,2.9h19.45Z"/>
      </g>
      <g>
        <path class="cls-4" d="M46.43,24.55c.06.24.09.5.09.78,0,.81-.24,1.55-.76,2.12h10.48c.49-.88.79-1.85.91-2.9h-10.72Z"/>
        <polygon class="cls-4" points="38.38 24.55 27.61 24.55 26.98 27.45 37.6 27.45 38.38 24.55"/>
        <path class="cls-4" d="M81.15,24.55h-9.2c-2.13.6-3.98,1.6-5.52,2.9h19.58c-1.27-1.31-2.9-2.31-4.86-2.9Z"/>
        <path class="cls-4" d="M125.42,24.55h-9.38c-.24,0-.44.1-.49.39l-.44,2.2c-.86-1.22-2.09-2.09-3.65-2.59h-6.88c-1.98.56-3.64,1.58-5,2.9h25.66l.57-2.41c.05-.29-.1-.49-.39-.49Z"/>
        <path class="cls-4" d="M142.9,24.55h-9.52c-.24,0-.44.1-.49.39l-.54,2.51h10.34l.6-2.41c.05-.29-.1-.49-.39-.49Z"/>
        <path class="cls-4" d="M170.85,24.55h-6.86c-1.6.54-3.03,1.4-4.24,2.44l.49-1.95c.05-.29-.1-.49-.39-.49h-8.94c-.24,0-.44.1-.49.39l-.58,2.51h24.46c-.77-1.36-1.97-2.34-3.45-2.9Z"/>
        <polygon class="cls-4" points="217.96 27.45 228.65 27.45 229.38 24.55 218.59 24.55 217.96 27.45"/>
        <polygon class="cls-4" points="196.91 24.55 196.29 27.45 206.98 27.45 207.69 24.55 196.91 24.55"/>
        <path class="cls-4" d="M258.12,27.45c-1.27-1.31-2.9-2.31-4.86-2.9h-9.2c-2.13.6-3.98,1.6-5.52,2.9h19.58Z"/>
        <path class="cls-4" d="M270.32,24.94l-.53,2.51h9.93l.66-2.41c.1-.34-.05-.49-.34-.49h-9.23c-.24,0-.44.1-.49.39Z"/>
        <path class="cls-4" d="M288.85,27.45l.57-2.46c.04-.18,0-.36-.15-.44h-2.66c-2.18.33-4.27,1.28-6.14,2.9h8.39Z"/>
        <path class="cls-4" d="M317.14,27.45c-1.27-1.31-2.9-2.31-4.86-2.9h-9.2c-2.13.6-3.98,1.6-5.52,2.9h19.58Z"/>
      </g>
      <g id="rightside-5" data-name="rightside">
        <g>
          <path class="cls-2" d="M28.89,48.87c-.05.29.1.49.39.49h16.44c3.71,0,6.75-.6,9.14-1.63h-25.68l-.28,1.14Z"/>
          <path class="cls-2" d="M61.06,41.52h-12.02c-.65.26-1.43.42-2.4.42h-5.29l.08-.42h-10.74l-1.52,6.2h25.68c3.25-1.4,5.31-3.6,6.2-6.2Z"/>
          <path class="cls-2" d="M81.26,49.99c3.48,0,6.35-.85,8.55-2.27h-16.91c2.22,1.49,5.1,2.27,8.35,2.27Z"/>
          <path class="cls-2" d="M94.44,41.52h-9.79c-.5,1.03-1.53,1.88-3.15,1.88-1.29,0-2.31-.58-2.87-1.88h-10.03c.66,2.7,2.19,4.78,4.31,6.2h16.91c2.38-1.53,3.97-3.71,4.63-6.2Z"/>
          <path class="cls-2" d="M116.56,41.52c-.49.26-1.03.42-1.66.42s-1.12-.16-1.54-.42h-11.32c.76,3.02,2.65,5.18,5.33,6.2h7.5c.97-.36,1.85-.85,2.64-1.44l-.33,1.44h9.68l1.43-6.2h-11.74Z"/>
          <path class="cls-2" d="M111.12,48.38c1.4,0,2.64-.24,3.76-.66h-7.5c1.12.43,2.37.66,3.74.66Z"/>
          <path class="cls-2" d="M116.74,49.65c-.48,2.2-1.7,3.12-3.73,3.12s-3.35-.98-3.54-2.59c0-.29-.19-.44-.44-.44h-9.31c-.29,0-.44.15-.44.44.24,4.98,4.85,9.13,13.29,9.13,7.37,0,12.36-2.98,13.82-9.52l.48-2.07h-9.68l-.44,1.93Z"/>
          <path class="cls-2" d="M133.61,48.87c-.05.29.1.49.39.49h9.5c.24,0,.44-.1.48-.39l.26-1.24h-10.35l-.29,1.14Z"/>
          <polygon class="cls-2" points="135.45 41.52 133.9 47.73 144.25 47.73 145.56 41.52 135.45 41.52"/>
          <polygon class="cls-2" points="169.09 41.52 167.55 47.73 177.81 47.73 179.16 41.52 169.09 41.52"/>
          <path class="cls-2" d="M167.26,48.87c-.05.29.1.49.39.49h9.41c.24,0,.44-.1.48-.39l.27-1.24h-10.26l-.29,1.14Z"/>
          <path class="cls-2" d="M150.92,48.87c-.05.29.1.49.39.49h9.5c.24,0,.44-.1.48-.39l.26-1.24h-10.36l-.28,1.14Z"/>
          <polygon class="cls-2" points="152.7 41.52 151.2 47.73 161.55 47.73 162.84 41.52 152.7 41.52"/>
          <polygon class="cls-2" points="198.8 41.52 197.26 47.73 208.21 47.73 209.56 41.52 198.8 41.52"/>
          <path class="cls-2" d="M196.98,48.87c-.05.29.1.49.39.49h10.09c.24,0,.44-.1.48-.39l.27-1.24h-10.95l-.28,1.14Z"/>
          <path class="cls-2" d="M218.55,48.87c-.05.29.1.49.39.49h10.09c.24,0,.44-.1.48-.39l.26-1.24h-10.95l-.28,1.14Z"/>
          <polygon class="cls-2" points="220.33 41.52 218.83 47.73 229.78 47.73 231.09 41.52 220.33 41.52"/>
          <path class="cls-2" d="M265.34,41.52h-9.79c-.5,1.03-1.53,1.88-3.15,1.88-1.29,0-2.31-.58-2.87-1.88h-10.03c.66,2.7,2.19,4.78,4.31,6.2h16.91c2.38-1.53,3.97-3.71,4.63-6.2Z"/>
          <path class="cls-2" d="M252.15,49.99c3.48,0,6.35-.85,8.55-2.27h-16.91c2.22,1.49,5.1,2.27,8.35,2.27Z"/>
          <path class="cls-2" d="M270.13,48.87c-.05.29.05.49.34.49h9.26c.24,0,.44-.1.48-.39l.28-1.24h-10.08l-.29,1.14Z"/>
          <polygon class="cls-2" points="271.97 41.52 270.42 47.73 280.5 47.73 281.91 41.52 271.97 41.52"/>
          <path class="cls-2" d="M302.41,47.73h16.91c2.38-1.53,3.97-3.71,4.63-6.2h-9.79c-.5,1.03-1.53,1.88-3.15,1.88-1.29,0-2.31-.58-2.87-1.88h-10.03c.66,2.7,2.19,4.78,4.31,6.2Z"/>
          <path class="cls-2" d="M310.76,49.99c3.48,0,6.35-.85,8.55-2.27h-16.91c2.22,1.49,5.1,2.27,8.35,2.27Z"/>
        </g>
        <g>
          <path class="cls-2" d="M28.53,48.87c-.05.29.1.49.39.49h16.44c3.71,0,6.75-.6,9.14-1.63h-25.68l-.28,1.14Z"/>
          <path class="cls-2" d="M60.7,41.52h-12.02c-.65.26-1.43.42-2.4.42h-5.29l.08-.42h-10.74l-1.52,6.2h25.68c3.25-1.4,5.31-3.6,6.2-6.2Z"/>
          <path class="cls-2" d="M80.9,49.99c3.48,0,6.35-.85,8.55-2.27h-16.91c2.22,1.49,5.1,2.27,8.35,2.27Z"/>
          <path class="cls-2" d="M94.08,41.52h-9.79c-.5,1.03-1.53,1.88-3.15,1.88-1.29,0-2.31-.58-2.87-1.88h-10.03c.66,2.7,2.19,4.78,4.31,6.2h16.91c2.38-1.53,3.97-3.71,4.63-6.2Z"/>
          <path class="cls-2" d="M116.2,41.52c-.49.26-1.03.42-1.66.42s-1.12-.16-1.54-.42h-11.32c.76,3.02,2.65,5.18,5.33,6.2h7.5c.97-.36,1.85-.85,2.64-1.44l-.33,1.44h9.68l1.43-6.2h-11.74Z"/>
          <path class="cls-2" d="M110.76,48.38c1.4,0,2.64-.24,3.76-.66h-7.5c1.12.43,2.37.66,3.74.66Z"/>
          <path class="cls-2" d="M116.38,49.65c-.48,2.2-1.7,3.12-3.73,3.12s-3.35-.98-3.54-2.59c0-.29-.19-.44-.44-.44h-9.31c-.29,0-.44.15-.44.44.24,4.98,4.85,9.13,13.29,9.13,7.37,0,12.36-2.98,13.82-9.52l.48-2.07h-9.68l-.44,1.93Z"/>
          <path class="cls-2" d="M133.25,48.87c-.05.29.1.49.39.49h9.5c.24,0,.44-.1.48-.39l.26-1.24h-10.35l-.29,1.14Z"/>
          <polygon class="cls-2" points="135.09 41.52 133.54 47.73 143.89 47.73 145.2 41.52 135.09 41.52"/>
          <polygon class="cls-2" points="168.73 41.52 167.19 47.73 177.45 47.73 178.8 41.52 168.73 41.52"/>
          <path class="cls-2" d="M166.9,48.87c-.05.29.1.49.39.49h9.41c.24,0,.44-.1.48-.39l.27-1.24h-10.26l-.29,1.14Z"/>
          <path class="cls-2" d="M150.56,48.87c-.05.29.1.49.39.49h9.5c.24,0,.44-.1.48-.39l.26-1.24h-10.36l-.28,1.14Z"/>
          <polygon class="cls-2" points="152.34 41.52 150.84 47.73 161.19 47.73 162.48 41.52 152.34 41.52"/>
          <polygon class="cls-2" points="198.44 41.52 196.9 47.73 207.85 47.73 209.2 41.52 198.44 41.52"/>
          <path class="cls-2" d="M196.62,48.87c-.05.29.1.49.39.49h10.09c.24,0,.44-.1.48-.39l.27-1.24h-10.95l-.28,1.14Z"/>
          <path class="cls-2" d="M218.19,48.87c-.05.29.1.49.39.49h10.09c.24,0,.44-.1.48-.39l.26-1.24h-10.95l-.28,1.14Z"/>
          <polygon class="cls-2" points="219.97 41.52 218.47 47.73 229.42 47.73 230.73 41.52 219.97 41.52"/>
          <path class="cls-2" d="M264.98,41.52h-9.79c-.5,1.03-1.53,1.88-3.15,1.88-1.29,0-2.31-.58-2.87-1.88h-10.03c.66,2.7,2.19,4.78,4.31,6.2h16.91c2.38-1.53,3.97-3.71,4.63-6.2Z"/>
          <path class="cls-2" d="M251.79,49.99c3.48,0,6.35-.85,8.55-2.27h-16.91c2.22,1.49,5.1,2.27,8.35,2.27Z"/>
          <path class="cls-2" d="M269.77,48.87c-.05.29.05.49.34.49h9.26c.24,0,.44-.1.48-.39l.28-1.24h-10.08l-.29,1.14Z"/>
          <polygon class="cls-2" points="271.61 41.52 270.06 47.73 280.14 47.73 281.55 41.52 271.61 41.52"/>
          <path class="cls-2" d="M302.05,47.73h16.91c2.38-1.53,3.97-3.71,4.63-6.2h-9.79c-.5,1.03-1.53,1.88-3.15,1.88-1.29,0-2.31-.58-2.87-1.88h-10.03c.66,2.7,2.19,4.78,4.31,6.2Z"/>
          <path class="cls-2" d="M310.4,49.99c3.48,0,6.35-.85,8.55-2.27h-16.91c2.22,1.49,5.1,2.27,8.35,2.27Z"/>
        </g>
      </g>
      <g id="leftside-5" data-name="leftside">
        <path class="cls-3" d="M23.46,48.87c-.05.29.1.49.39.49h16.44c3.71,0,6.74-.6,9.14-1.63h-25.68l-.28,1.14Z"/>
        <path class="cls-3" d="M55.62,41.52h-12.01c-.65.26-1.43.42-2.4.42h-5.28l.08-.42h-10.74l-1.52,6.2h25.68c3.25-1.4,5.31-3.6,6.2-6.2Z"/>
        <path class="cls-3" d="M75.82,49.99c3.48,0,6.35-.85,8.55-2.27h-16.9c2.22,1.49,5.1,2.27,8.35,2.27Z"/>
        <path class="cls-3" d="M89,41.52h-9.79c-.5,1.03-1.53,1.88-3.15,1.88-1.29,0-2.31-.58-2.87-1.88h-10.03c.66,2.7,2.19,4.78,4.31,6.2h16.9c2.38-1.53,3.97-3.71,4.63-6.2Z"/>
        <path class="cls-3" d="M111.12,41.52c-.49.26-1.03.42-1.66.42s-1.12-.16-1.54-.42h-11.32c.76,3.02,2.65,5.18,5.33,6.2h7.5c.97-.36,1.85-.85,2.64-1.44l-.33,1.44h9.68l1.43-6.2h-11.74Z"/>
        <path class="cls-3" d="M105.68,48.38c1.4,0,2.64-.24,3.76-.66h-7.5c1.12.43,2.37.66,3.74.66Z"/>
        <path class="cls-3" d="M111.3,49.65c-.48,2.2-1.7,3.12-3.73,3.12s-3.35-.98-3.54-2.59c0-.29-.19-.44-.44-.44h-9.31c-.29,0-.44.15-.44.44.24,4.98,4.85,9.13,13.28,9.13,7.37,0,12.36-2.98,13.82-9.52l.48-2.07h-9.68l-.44,1.93Z"/>
        <path class="cls-3" d="M128.17,48.87c-.05.29.1.49.39.49h9.5c.24,0,.44-.1.48-.39l.26-1.24h-10.35l-.29,1.14Z"/>
        <polygon class="cls-3" points="130.01 41.52 128.46 47.73 138.81 47.73 140.12 41.52 130.01 41.52"/>
        <polygon class="cls-3" points="163.65 41.52 162.1 47.73 172.36 47.73 173.71 41.52 163.65 41.52"/>
        <path class="cls-3" d="M161.82,48.87c-.05.29.1.49.39.49h9.41c.24,0,.44-.1.48-.39l.27-1.24h-10.26l-.29,1.14Z"/>
        <path class="cls-3" d="M145.48,48.87c-.05.29.1.49.39.49h9.5c.24,0,.44-.1.48-.39l.26-1.24h-10.36l-.28,1.14Z"/>
        <polygon class="cls-3" points="147.26 41.52 145.75 47.73 156.11 47.73 157.4 41.52 147.26 41.52"/>
        <polygon class="cls-3" points="193.35 41.52 191.81 47.73 202.76 47.73 204.12 41.52 193.35 41.52"/>
        <path class="cls-3" d="M191.53,48.87c-.05.29.1.49.39.49h10.08c.24,0,.44-.1.48-.39l.27-1.24h-10.94l-.28,1.14Z"/>
        <path class="cls-3" d="M213.11,48.87c-.05.29.1.49.39.49h10.08c.24,0,.44-.1.48-.39l.26-1.24h-10.94l-.28,1.14Z"/>
        <polygon class="cls-3" points="214.88 41.52 213.38 47.73 224.33 47.73 225.64 41.52 214.88 41.52"/>
        <path class="cls-3" d="M259.88,41.52h-9.79c-.5,1.03-1.53,1.88-3.15,1.88-1.29,0-2.31-.58-2.87-1.88h-10.03c.66,2.7,2.19,4.78,4.31,6.2h16.9c2.38-1.53,3.97-3.71,4.63-6.2Z"/>
        <path class="cls-3" d="M246.7,49.99c3.48,0,6.35-.85,8.55-2.27h-16.9c2.22,1.49,5.1,2.27,8.35,2.27Z"/>
        <path class="cls-3" d="M264.68,48.87c-.05.29.05.49.34.49h9.26c.24,0,.44-.1.48-.39l.28-1.24h-10.08l-.29,1.14Z"/>
        <polygon class="cls-3" points="266.51 41.52 264.97 47.73 275.05 47.73 276.45 41.52 266.51 41.52"/>
        <path class="cls-3" d="M296.96,47.73h16.9c2.38-1.53,3.97-3.71,4.63-6.2h-9.79c-.5,1.03-1.53,1.88-3.15,1.88-1.29,0-2.31-.58-2.87-1.88h-10.03c.66,2.7,2.19,4.78,4.31,6.2Z"/>
        <path class="cls-3" d="M305.31,49.99c3.48,0,6.35-.85,8.55-2.27h-16.9c2.22,1.49,5.1,2.27,8.35,2.27Z"/>
      </g>
      <g>
        <path class="cls-4" d="M24.93,48.87c-.05.29.1.49.39.49h16.55c3.73,0,6.79-.6,9.2-1.63h-25.87l-.28,1.14Z"/>
        <path class="cls-4" d="M57.32,41.52h-12.1c-.65.26-1.44.42-2.42.42h-5.32l.08-.42h-10.82l-1.53,6.2h25.87c3.27-1.4,5.35-3.6,6.24-6.2Z"/>
        <path class="cls-4" d="M77.67,49.99c3.5,0,6.4-.85,8.61-2.27h-17.02c2.24,1.49,5.14,2.27,8.41,2.27Z"/>
        <path class="cls-4" d="M90.94,41.52h-9.86c-.51,1.03-1.54,1.88-3.18,1.88-1.3,0-2.32-.58-2.89-1.88h-10.1c.67,2.7,2.2,4.78,4.34,6.2h17.02c2.4-1.53,3.99-3.71,4.66-6.2Z"/>
        <path class="cls-4" d="M113.22,41.52c-.49.26-1.04.42-1.67.42s-1.13-.16-1.55-.42h-11.4c.77,3.02,2.67,5.18,5.37,6.2h7.55c.98-.36,1.87-.85,2.66-1.44l-.33,1.44h9.75l1.44-6.2h-11.82Z"/>
        <path class="cls-4" d="M107.74,48.38c1.41,0,2.66-.24,3.78-.66h-7.55c1.13.43,2.39.66,3.77.66Z"/>
        <path class="cls-4" d="M113.4,49.65c-.49,2.2-1.71,3.12-3.76,3.12s-3.37-.98-3.56-2.59c0-.29-.2-.44-.44-.44h-9.38c-.29,0-.44.15-.44.44.24,4.98,4.88,9.13,13.38,9.13,7.42,0,12.45-2.98,13.92-9.52l.48-2.07h-9.75l-.45,1.93Z"/>
        <path class="cls-4" d="M130.39,48.87c-.05.29.1.49.39.49h9.57c.24,0,.44-.1.49-.39l.26-1.24h-10.42l-.29,1.14Z"/>
        <polygon class="cls-4" points="132.24 41.52 130.68 47.73 141.1 47.73 142.42 41.52 132.24 41.52"/>
        <polygon class="cls-4" points="166.12 41.52 164.56 47.73 174.9 47.73 176.26 41.52 166.12 41.52"/>
        <path class="cls-4" d="M164.28,48.87c-.05.29.1.49.39.49h9.47c.24,0,.44-.1.49-.39l.27-1.24h-10.34l-.29,1.14Z"/>
        <path class="cls-4" d="M147.82,48.87c-.05.29.1.49.39.49h9.57c.24,0,.44-.1.49-.39l.26-1.24h-10.43l-.28,1.14Z"/>
        <polygon class="cls-4" points="149.61 41.52 148.1 47.73 158.53 47.73 159.82 41.52 149.61 41.52"/>
        <polygon class="cls-4" points="196.04 41.52 194.49 47.73 205.51 47.73 206.88 41.52 196.04 41.52"/>
        <path class="cls-4" d="M194.2,48.87c-.05.29.1.49.39.49h10.16c.24,0,.44-.1.49-.39l.27-1.24h-11.02l-.29,1.14Z"/>
        <path class="cls-4" d="M215.93,48.87c-.05.29.1.49.39.49h10.16c.24,0,.44-.1.49-.39l.27-1.24h-11.02l-.28,1.14Z"/>
        <polygon class="cls-4" points="217.72 41.52 216.21 47.73 227.23 47.73 228.56 41.52 217.72 41.52"/>
        <path class="cls-4" d="M263.04,41.52h-9.86c-.51,1.03-1.54,1.88-3.18,1.88-1.3,0-2.32-.58-2.89-1.88h-10.1c.67,2.7,2.2,4.78,4.34,6.2h17.02c2.4-1.53,3.99-3.71,4.66-6.2Z"/>
        <path class="cls-4" d="M249.76,49.99c3.5,0,6.4-.85,8.61-2.27h-17.02c2.24,1.49,5.14,2.27,8.41,2.27Z"/>
        <path class="cls-4" d="M267.87,48.87c-.05.29.05.49.34.49h9.33c.24,0,.44-.1.49-.39l.28-1.24h-10.15l-.29,1.14Z"/>
        <polygon class="cls-4" points="269.72 41.52 268.16 47.73 278.31 47.73 279.73 41.52 269.72 41.52"/>
        <path class="cls-4" d="M300.38,47.73h17.02c2.4-1.53,3.99-3.71,4.66-6.2h-9.86c-.51,1.03-1.54,1.88-3.18,1.88-1.3,0-2.32-.58-2.89-1.88h-10.1c.67,2.7,2.2,4.78,4.34,6.2Z"/>
        <path class="cls-4" d="M308.79,49.99c3.5,0,6.4-.85,8.61-2.27h-17.02c2.24,1.49,5.14,2.27,8.41,2.27Z"/>
      </g>
      <g id="rightside-6" data-name="rightside">
        <g>
          <path class="cls-2" d="M41.84,35.46h5.24c2.67,0,3.39,1.12,3.39,2.83,0,1.49-.68,2.77-2.25,3.39h12.02c.34-1,.52-2.05.52-3.15,0-1.98-.6-3.63-1.96-4.88h-26.95l-1.97,8.03h10.74l1.23-6.23Z"/>
          <path class="cls-2" d="M67.77,41.69h10.03c-.28-.66-.46-1.5-.48-2.56h16.68c.24,0,.44-.15.48-.39.39-1.79.47-3.5.28-5.08h-26.6c-.51,1.53-.79,3.15-.79,4.83,0,1.15.14,2.21.38,3.2Z"/>
          <path class="cls-2" d="M93.28,41.03h-8.78c-.24,0-.44.1-.53.34-.04.11-.09.21-.14.32h9.79c.02-.06.04-.11.05-.17.05-.29-.1-.49-.39-.49Z"/>
          <path class="cls-2" d="M101.22,41.69h11.32c-1.04-.64-1.51-1.97-1.51-3.64,0-1.15.22-2.87.84-4.39h-10.28c-.49,1.61-.74,3.26-.74,4.83,0,1.15.13,2.22.38,3.2Z"/>
          <path class="cls-2" d="M115.73,41.69h11.74l.28-1.2,1.59-6.84h-10.29c0,.13.02.25.02.39,0,2.01-.79,6.31-3.34,7.64Z"/>
          <polygon class="cls-2" points="134.63 41.69 144.73 41.69 145.63 37.42 146.56 33.66 136.5 33.66 135.7 37.42 134.63 41.69"/>
          <path class="cls-2" d="M151.87,41.69h10.14l.3-1.44.29-1.37c.29-1.4.81-3.55,1.79-5.22h-10.61l-.73,3.17-1.18,4.86Z"/>
          <path class="cls-2" d="M168.66,40.1l-.4,1.59h10.06l.61-2.81,1.16-4.83c.03-.13.05-.26.07-.39h-10.19c-.02.3-.05.6-.12.93l-1.21,5.52Z"/>
          <polygon class="cls-2" points="208.74 41.69 210.16 35.17 221.07 35.17 219.5 41.69 230.27 41.69 231.97 33.66 199.97 33.66 197.97 41.69 208.74 41.69"/>
          <path class="cls-2" d="M238.66,41.69h10.03c-.28-.66-.46-1.5-.48-2.56h16.68c.24,0,.44-.15.48-.39.39-1.79.47-3.5.28-5.08h-26.6c-.51,1.53-.79,3.15-.79,4.83,0,1.15.14,2.21.38,3.2Z"/>
          <path class="cls-2" d="M264.17,41.03h-8.78c-.24,0-.44.1-.53.34-.04.11-.09.21-.14.32h9.79c.02-.06.04-.11.05-.17.05-.29-.1-.49-.39-.49Z"/>
          <path class="cls-2" d="M271.14,41.69h9.94l.2-.9c.59-3.23,2.04-5.63,4.09-7.13h-12.37l-.74,3.52-1.13,4.52Z"/>
          <path class="cls-2" d="M297.28,41.69h10.03c-.28-.66-.46-1.5-.48-2.56h16.68c.24,0,.44-.15.48-.39.39-1.79.47-3.5.28-5.08h-26.6c-.51,1.53-.79,3.15-.79,4.83,0,1.15.14,2.21.38,3.2Z"/>
          <path class="cls-2" d="M323.17,41.52c.05-.29-.1-.49-.39-.49h-8.78c-.24,0-.44.1-.53.34-.04.11-.09.21-.14.32h9.79c.02-.06.04-.11.05-.17Z"/>
        </g>
        <g>
          <path class="cls-2" d="M41.48,35.46h5.24c2.67,0,3.39,1.12,3.39,2.83,0,1.49-.68,2.77-2.25,3.39h12.02c.34-1,.52-2.05.52-3.15,0-1.98-.6-3.63-1.96-4.88h-26.95l-1.97,8.03h10.74l1.23-6.23Z"/>
          <path class="cls-2" d="M67.41,41.69h10.03c-.28-.66-.46-1.5-.48-2.56h16.68c.24,0,.44-.15.48-.39.39-1.79.47-3.5.28-5.08h-26.6c-.51,1.53-.79,3.15-.79,4.83,0,1.15.14,2.21.38,3.2Z"/>
          <path class="cls-2" d="M92.92,41.03h-8.78c-.24,0-.44.1-.53.34-.04.11-.09.21-.14.32h9.79c.02-.06.04-.11.05-.17.05-.29-.1-.49-.39-.49Z"/>
          <path class="cls-2" d="M100.86,41.69h11.32c-1.04-.64-1.51-1.97-1.51-3.64,0-1.15.22-2.87.84-4.39h-10.28c-.49,1.61-.74,3.26-.74,4.83,0,1.15.13,2.22.38,3.2Z"/>
          <path class="cls-2" d="M115.37,41.69h11.74l.28-1.2,1.59-6.84h-10.29c0,.13.02.25.02.39,0,2.01-.79,6.31-3.34,7.64Z"/>
          <polygon class="cls-2" points="134.27 41.69 144.37 41.69 145.27 37.42 146.2 33.66 136.14 33.66 135.34 37.42 134.27 41.69"/>
          <path class="cls-2" d="M151.51,41.69h10.14l.3-1.44.29-1.37c.29-1.4.81-3.55,1.79-5.22h-10.61l-.73,3.17-1.18,4.86Z"/>
          <path class="cls-2" d="M168.3,40.1l-.4,1.59h10.06l.61-2.81,1.16-4.83c.03-.13.05-.26.07-.39h-10.19c-.02.3-.05.6-.12.93l-1.21,5.52Z"/>
          <polygon class="cls-2" points="208.38 41.69 209.8 35.17 220.71 35.17 219.14 41.69 229.91 41.69 231.61 33.66 199.61 33.66 197.61 41.69 208.38 41.69"/>
          <path class="cls-2" d="M238.3,41.69h10.03c-.28-.66-.46-1.5-.48-2.56h16.68c.24,0,.44-.15.48-.39.39-1.79.47-3.5.28-5.08h-26.6c-.51,1.53-.79,3.15-.79,4.83,0,1.15.14,2.21.38,3.2Z"/>
          <path class="cls-2" d="M263.81,41.03h-8.78c-.24,0-.44.1-.53.34-.04.11-.09.21-.14.32h9.79c.02-.06.04-.11.05-.17.05-.29-.1-.49-.39-.49Z"/>
          <path class="cls-2" d="M270.78,41.69h9.94l.2-.9c.59-3.23,2.04-5.63,4.09-7.13h-12.37l-.74,3.52-1.13,4.52Z"/>
          <path class="cls-2" d="M296.92,41.69h10.03c-.28-.66-.46-1.5-.48-2.56h16.68c.24,0,.44-.15.48-.39.39-1.79.47-3.5.28-5.08h-26.6c-.51,1.53-.79,3.15-.79,4.83,0,1.15.14,2.21.38,3.2Z"/>
          <path class="cls-2" d="M322.81,41.52c.05-.29-.1-.49-.39-.49h-8.78c-.24,0-.44.1-.53.34-.04.11-.09.21-.14.32h9.79c.02-.06.04-.11.05-.17Z"/>
        </g>
      </g>
      <g id="leftside-6" data-name="leftside">
        <path class="cls-3" d="M36.4,35.46h5.24c2.67,0,3.39,1.12,3.39,2.83,0,1.49-.68,2.77-2.25,3.39h12.01c.34-1,.52-2.05.52-3.15,0-1.98-.6-3.63-1.96-4.88h-26.94l-1.97,8.03h10.74l1.23-6.23Z"/>
        <path class="cls-3" d="M62.33,41.69h10.03c-.28-.66-.46-1.5-.48-2.56h16.68c.24,0,.44-.15.48-.39.39-1.79.47-3.5.28-5.08h-26.59c-.51,1.53-.79,3.15-.79,4.83,0,1.15.14,2.21.38,3.2Z"/>
        <path class="cls-3" d="M87.84,41.03h-8.78c-.24,0-.44.1-.53.34-.04.11-.09.21-.14.32h9.79c.02-.06.04-.11.05-.17.05-.29-.1-.49-.39-.49Z"/>
        <path class="cls-3" d="M95.77,41.69h11.32c-1.04-.64-1.51-1.97-1.51-3.64,0-1.15.22-2.87.84-4.39h-10.28c-.49,1.61-.74,3.26-.74,4.83,0,1.15.13,2.22.38,3.2Z"/>
        <path class="cls-3" d="M110.29,41.69h11.74l.28-1.2,1.59-6.84h-10.29c0,.13.02.25.02.39,0,2.01-.79,6.31-3.34,7.64Z"/>
        <polygon class="cls-3" points="129.18 41.69 139.29 41.69 140.19 37.42 141.12 33.66 131.06 33.66 130.25 37.42 129.18 41.69"/>
        <path class="cls-3" d="M146.43,41.69h10.14l.3-1.44.29-1.37c.29-1.4.81-3.55,1.79-5.22h-10.61l-.73,3.17-1.18,4.86Z"/>
        <path class="cls-3" d="M163.22,40.1l-.4,1.59h10.06l.61-2.81,1.16-4.83c.03-.13.05-.26.07-.39h-10.19c-.02.3-.05.6-.12.93l-1.21,5.52Z"/>
        <polygon class="cls-3" points="203.29 41.69 204.71 35.17 215.62 35.17 214.05 41.69 224.82 41.69 226.52 33.66 194.52 33.66 192.53 41.69 203.29 41.69"/>
        <path class="cls-3" d="M233.21,41.69h10.03c-.28-.66-.46-1.5-.48-2.56h16.68c.24,0,.44-.15.48-.39.39-1.79.47-3.5.28-5.08h-26.59c-.51,1.53-.79,3.15-.79,4.83,0,1.15.14,2.21.38,3.2Z"/>
        <path class="cls-3" d="M258.72,41.03h-8.78c-.24,0-.44.1-.53.34-.04.11-.09.21-.14.32h9.79c.02-.06.04-.11.05-.17.05-.29-.1-.49-.39-.49Z"/>
        <path class="cls-3" d="M265.69,41.69h9.94l.2-.9c.59-3.23,2.04-5.63,4.09-7.13h-12.37l-.74,3.52-1.13,4.52Z"/>
        <path class="cls-3" d="M291.82,41.69h10.03c-.28-.66-.46-1.5-.48-2.56h16.68c.24,0,.44-.15.48-.39.39-1.79.47-3.5.28-5.08h-26.59c-.51,1.53-.79,3.15-.79,4.83,0,1.15.14,2.21.38,3.2Z"/>
        <path class="cls-3" d="M317.72,41.52c.05-.29-.1-.49-.39-.49h-8.78c-.24,0-.44.1-.53.34-.04.11-.09.21-.14.32h9.79c.02-.06.04-.11.05-.17Z"/>
      </g>
      <g>
        <path class="cls-4" d="M37.97,35.46h5.27c2.69,0,3.42,1.12,3.42,2.83,0,1.49-.68,2.77-2.27,3.39h12.1c.34-1,.52-2.05.52-3.15,0-1.98-.61-3.63-1.98-4.88h-27.14l-1.98,8.03h10.82l1.24-6.23Z"/>
        <path class="cls-4" d="M64.08,41.69h10.1c-.29-.66-.46-1.5-.48-2.56h16.8c.24,0,.44-.15.49-.39.4-1.79.47-3.5.28-5.08h-26.78c-.51,1.53-.79,3.15-.79,4.83,0,1.15.14,2.21.39,3.2Z"/>
        <path class="cls-4" d="M89.77,41.03h-8.84c-.24,0-.44.1-.54.34-.04.11-.09.21-.14.32h9.86c.02-.06.04-.11.05-.17.05-.29-.1-.49-.39-.49Z"/>
        <path class="cls-4" d="M97.77,41.69h11.4c-1.04-.64-1.53-1.97-1.53-3.64,0-1.15.22-2.87.84-4.39h-10.35c-.49,1.61-.74,3.26-.74,4.83,0,1.15.13,2.22.38,3.2Z"/>
        <path class="cls-4" d="M112.38,41.69h11.82l.28-1.2,1.6-6.84h-10.37c0,.13.02.25.02.39,0,2.01-.8,6.31-3.36,7.64Z"/>
        <polygon class="cls-4" points="131.41 41.69 141.59 41.69 142.5 37.42 143.43 33.66 133.3 33.66 132.49 37.42 131.41 41.69"/>
        <path class="cls-4" d="M148.78,41.69h10.21l.3-1.44.29-1.37c.29-1.4.82-3.55,1.8-5.22h-10.69l-.73,3.17-1.19,4.86Z"/>
        <path class="cls-4" d="M165.69,40.1l-.4,1.59h10.14l.61-2.81,1.17-4.83c.03-.13.05-.26.07-.39h-10.26c-.02.3-.05.6-.12.93l-1.22,5.52Z"/>
        <polygon class="cls-4" points="206.04 41.69 207.48 35.17 218.47 35.17 216.88 41.69 227.72 41.69 229.44 33.66 197.21 33.66 195.21 41.69 206.04 41.69"/>
        <path class="cls-4" d="M236.18,41.69h10.1c-.29-.66-.46-1.5-.48-2.56h16.8c.24,0,.44-.15.49-.39.4-1.79.47-3.5.28-5.08h-26.78c-.51,1.53-.79,3.15-.79,4.83,0,1.15.14,2.21.39,3.2Z"/>
        <path class="cls-4" d="M261.87,41.03h-8.84c-.24,0-.44.1-.54.34-.04.11-.09.21-.14.32h9.86c.02-.06.04-.11.05-.17.05-.29-.1-.49-.39-.49Z"/>
        <path class="cls-4" d="M268.89,41.69h10.01l.21-.9c.59-3.23,2.05-5.63,4.12-7.13h-12.45l-.75,3.52-1.13,4.52Z"/>
        <path class="cls-4" d="M295.21,41.69h10.1c-.29-.66-.46-1.5-.48-2.56h16.8c.24,0,.44-.15.49-.39.4-1.79.47-3.5.28-5.08h-26.78c-.51,1.53-.79,3.15-.79,4.83,0,1.15.14,2.21.39,3.2Z"/>
        <path class="cls-4" d="M321.29,41.52c.05-.29-.1-.49-.39-.49h-8.84c-.24,0-.44.1-.54.34-.04.11-.09.21-.14.32h9.86c.02-.06.04-.11.05-.17Z"/>
      </g>
    </g>
    <g id="lil_lines" data-name="lil lines">
      <g>
        <rect class="cls-4" x="29.23" y="31.09" width="2.68" height=".89"/>
        <rect class="cls-4" x="56.86" y="37.09" width="2.68" height=".89"/>
        <rect class="cls-4" x="43.8" y="39.14" width="2.68" height=".89"/>
        <rect class="cls-4" x="55.09" y="18.43" width="2.68" height=".89"/>
        <rect class="cls-4" x="26.77" y="17.71" width="2.68" height=".89"/>
        <rect class="cls-4" x="36.36" y="39.33" width="2.68" height=".89"/>
        <rect class="cls-4" x="63.49" y="43.62" width="2.68" height=".89"/>
        <rect class="cls-4" x="83.82" y="25.83" width="2.68" height=".89"/>
        <rect class="cls-4" x="81.78" y="31.41" width="2.68" height=".89"/>
        <rect class="cls-4" x="88.82" y="43.45" width="2.68" height=".89"/>
        <rect class="cls-4" x="100.66" y="30.39" width="2.68" height=".89"/>
        <rect class="cls-4" x="97.25" y="45.14" width="4.51" height=".89"/>
        <rect class="cls-4" x="121.18" y="53.02" width="4.51" height=".89"/>
        <rect class="cls-4" x="93.85" y="54.35" width="4.51" height=".89"/>
        <rect class="cls-4" x="128.68" y="38.02" width="4.51" height=".89"/>
        <rect class="cls-4" x="140.43" y="47.52" width="4.51" height=".89"/>
        <rect class="cls-4" x="156.18" y="47.02" width="4.51" height=".89"/>
        <rect class="cls-4" x="162.68" y="43.18" width="4.51" height=".89"/>
        <rect class="cls-4" x="162.68" y="36.27" width="4.51" height=".89"/>
        <rect class="cls-4" x="178.68" y="30.77" width="4.51" height=".89"/>
        <rect class="cls-4" x="197.01" y="30.85" width="4.51" height=".89"/>
        <rect class="cls-4" x="204.26" y="46.02" width="4.51" height=".89"/>
        <rect class="cls-4" x="226.85" y="47.85" width="4.51" height=".89"/>
        <rect class="cls-4" x="230.35" y="18.6" width="4.51" height=".89"/>
        <rect class="cls-4" x="254.18" y="31.68" width="4.51" height=".89"/>
        <rect class="cls-4" x="235.6" y="45.85" width="4.51" height=".89"/>
        <rect class="cls-4" x="231.68" y="35.85" width="4.51" height=".89"/>
        <rect class="cls-4" x="258.01" y="45.68" width="4.51" height=".89"/>
        <rect class="cls-4" x="270.68" y="30.18" width="4.51" height=".89"/>
        <rect class="cls-4" x="276.6" y="47.85" width="4.51" height=".89"/>
        <rect class="cls-4" x="266.35" y="37.02" width="4.51" height=".89"/>
        <rect class="cls-4" x="291.26" y="39.1" width="4.51" height=".89"/>
        <rect class="cls-4" x="322.18" y="35.85" width="4.51" height=".89"/>
        <rect class="cls-4" x="317.43" y="46.52" width="4.51" height=".89"/>
      </g>
    </g>
    <g id="Cyan">
      <rect class="cls-3" x="23.88" y="19.24" width="8.13" height=".36"/>
      <rect class="cls-3" x="45.51" y="37.2" width="4.51" height=".36"/>
      <rect class="cls-3" x="46.93" y="23.2" width="4.51" height=".36"/>
      <rect class="cls-3" x="65.77" y="29.95" width="6.59" height=".36"/>
      <rect class="cls-3" x="63.1" y="37.11" width="4.51" height=".36"/>
      <rect class="cls-3" x="83.6" y="32.95" width="4.51" height=".36"/>
      <rect class="cls-3" x="131.68" y="36.28" width="2.49" height=".36"/>
      <rect class="cls-3" x="128.58" y="43.36" width="3.99" height=".36"/>
      <rect class="cls-3" x="130.35" y="48.69" width="2.49" height=".36"/>
      <rect class="cls-3" x="129.5" y="18.99" width="6.31" height=".36"/>
      <rect class="cls-3" x="109.94" y="41.02" width="5.16" height=".36"/>
      <rect class="cls-3" x="108.07" y="51.96" width="4.93" height=".36"/>
      <rect class="cls-3" x="96.4" y="35.02" width="2.49" height=".36"/>
      <rect class="cls-3" x="98.4" y="43.41" width="2.49" height=".36"/>
      <rect class="cls-3" x="146.9" y="48.41" width="2.49" height=".36"/>
      <rect class="cls-3" x="161.33" y="39.24" width="6.22" height=".36"/>
      <rect class="cls-3" x="148.62" y="34.68" width="2.49" height=".36"/>
      <rect class="cls-3" x="153.68" y="32.41" width="2.49" height=".36"/>
      <rect class="cls-3" x="190.29" y="48.22" width="4.79" height=".36"/>
      <rect class="cls-3" x="195.92" y="35.39" width="2.49" height=".36"/>
      <rect class="cls-3" x="214.33" y="36.14" width="5.91" height=".36"/>
      <rect class="cls-3" x="213.89" y="25.84" width="5.43" height=".36"/>
      <rect class="cls-3" x="193.99" y="16.43" width="5.59" height=".36"/>
      <rect class="cls-3" x="238.85" y="48.39" width="5.22" height=".36"/>
      <rect class="cls-3" x="231.76" y="39.32" width="6.21" height=".36"/>
      <rect class="cls-3" x="241.75" y="29.26" width="2.49" height=".36"/>
      <rect class="cls-3" x="251.34" y="32.93" width="6.53" height=".36"/>
      <rect class="cls-3" x="264.13" y="47.55" width="6.4" height=".36"/>
      <rect class="cls-3" x="267.84" y="39.05" width="2.49" height=".36"/>
      <rect class="cls-3" x="269.84" y="28.72" width="6.57" height=".36"/>
      <rect class="cls-3" x="309.84" y="30.55" width="6.03" height=".36"/>
      <rect class="cls-3" x="294.03" y="47.59" width="7.76" height=".36"/>
      <rect class="cls-3" x="294.5" y="35.93" width="2.49" height=".36"/>
      <rect class="cls-3" x="297.35" y="28.98" width="5.26" height=".36" transform="translate(-.15 1.54) rotate(-.29)"/>
    </g>
    <g id="magenta">
      <rect class="cls-2" x="172.31" y="37.78" width="4.51" height=".36"/>
      <rect class="cls-2" x="172.2" y="48.18" width="7.27" height=".36"/>
      <rect class="cls-2" x="52.67" y="21.52" width="8.73" height=".36"/>
      <rect class="cls-2" x="55.52" y="30.51" width="4.51" height=".36"/>
      <rect class="cls-2" x="49.41" y="46.93" width="11.03" height=".36"/>
      <rect class="cls-2" x="55.12" y="39.18" width="6.41" height=".36"/>
      <rect class="cls-2" x="38.53" y="23.22" width="4.51" height=".36"/>
      <rect class="cls-2" x="34.66" y="38.18" width="8.52" height=".36"/>
      <rect class="cls-2" x="75.49" y="32.69" width="6.68" height=".36"/>
      <rect class="cls-2" x="70.97" y="40.77" width="8.26" height=".36"/>
      <rect class="cls-2" x="88.65" y="37.52" width="4.51" height=".36"/>
      <rect class="cls-2" x="82.89" y="47.49" width="9.31" height=".36"/>
      <rect class="cls-2" x="109.48" y="31.91" width="9.09" height=".36"/>
      <rect class="cls-2" x="105.33" y="40.79" width="9.5" height=".36"/>
      <rect class="cls-2" x="104.2" y="51.25" width="6.48" height=".36"/>
      <rect class="cls-2" x="114.78" y="57.26" width="8.48" height=".36"/>
      <rect class="cls-2" x="120.83" y="40.68" width="7.41" height=".36"/>
      <rect class="cls-2" x="122.33" y="26.43" width="4.51" height=".36"/>
      <rect class="cls-2" x="138.62" y="46.22" width="4.51" height=".36"/>
      <rect class="cls-2" x="139.37" y="38.43" width="7.02" height=".36"/>
      <rect class="cls-2" x="143.87" y="28.97" width="4.51" height=".36"/>
      <rect class="cls-2" x="142.28" y="17.05" width="6.62" height=".36"/>
      <rect class="cls-2" x="155.37" y="40.22" width="7.89" height=".36"/>
      <rect class="cls-2" x="158.87" y="34.89" width="4.51" height=".36"/>
      <rect class="cls-2" x="162.62" y="32.05" width="6.68" height=".36"/>
      <rect class="cls-2" x="177.41" y="29.05" width="7.49" height=".36"/>
      <rect class="cls-2" x="205.71" y="20.98" width="7.07" height=".36"/>
      <rect class="cls-2" x="204.69" y="37.73" width="4.51" height=".36"/>
      <rect class="cls-2" x="203.65" y="26.42" width="6.85" height=".36"/>
      <rect class="cls-2" x="201.82" y="48.58" width="7.76" height=".36"/>
      <rect class="cls-2" x="224.88" y="46.83" width="5.76" height=".36"/>
      <rect class="cls-2" x="225.52" y="37.71" width="4.51" height=".36"/>
      <rect class="cls-2" x="231.71" y="28.23" width="5.99" height=".36"/>
      <rect class="cls-2" x="228.07" y="20.48" width="4.51" height=".36"/>
      <rect class="cls-2" x="248.3" y="31.37" width="6.42" height=".36"/>
      <rect class="cls-2" x="243.32" y="39.79" width="5.7" height=".36"/>
      <rect class="cls-2" x="259.3" y="44.4" width="4.51" height=".36"/>
      <rect class="cls-2" x="260.02" y="33.92" width="4.51" height=".36"/>
      <rect class="cls-2" x="275.44" y="45.64" width="7.11" height=".36"/>
      <rect class="cls-2" x="276.63" y="38.89" width="4.51" height=".36"/>
      <rect class="cls-2" x="284.54" y="32.67" width="4.51" height=".36"/>
      <rect class="cls-2" x="291.01" y="27.7" width="4.51" height=".36"/>
      <rect class="cls-2" x="286.1" y="25.56" width="5.96" height=".36"/>
      <rect class="cls-2" x="306.01" y="32.31" width="6.64" height=".36"/>
      <rect class="cls-2" x="302.46" y="40.81" width="4.51" height=".36"/>
      <rect class="cls-2" x="313.65" y="47.86" width="4.51" height=".36"/>
      <rect class="cls-2" x="318.54" y="42.64" width="6.11" height=".36"/>
      <rect class="cls-2" x="321.29" y="31.39" width="6.97" height=".36"/>
    </g>
  </g>
</svg>